# xmcd CD database file
#
# Track frame offsets:
#	150
#	14848
#	32611
#	50690
#	64224
#	78700
#	92297
#	113328
#	127522
#	141771
#	164492
#	178152
#	200550
#	218465
#	238669
#	261952
#	275201
#	287533
#	297854
#	312271
#
# Disc length: 4318 seconds
#
# Revision: 0
# Processed by: cddbd v1.5.2PL0 Copyright (c) Steve Scherf et al.
# Submitted via: CDex 1.51
#
DISCID=2610dc14
DTITLE=Lightnin' Hopkins - Blues Giant Best Selection 3
DYEAR=2001
DGENRE=Blues
TTITLE0=Mary Lou
TTITLE1=Want To Come Home
TTITLE2=Devil Is Watching You
TTITLE3=Rolling And Rolling
TTITLE4=Please Don't Quit Me
TTITLE5=Move On Out (Part 1)
TTITLE6=Moaning Blues
TTITLE7=Katie Mae
TTITLE8=Move On Out (Part 2)
TTITLE9=Mr. Charlie
TTITLE10=Mojo Hand
TTITLE11=Houston Bound
TTITLE12=Black Mare Trot
TTITLE13=Glory Bee
TTITLE14=Baby I Don't Care
TTITLE15=Jake Head Boogie
TTITLE16=Lonesome Dog Blues
TTITLE17=Give Me Back That Wig
TTITLE18=Tell Me Pretty Baby
TTITLE19=Bad Luck and Trouble
EXTD=YEAR: 2001
EXTT0=
EXTT1=
EXTT2=
EXTT3=
EXTT4=
EXTT5=
EXTT6=
EXTT7=
EXTT8=
EXTT9=
EXTT10=
EXTT11=
EXTT12=
EXTT13=
EXTT14=
EXTT15=
EXTT16=
EXTT17=
EXTT18=
EXTT19=
PLAYORDER=
